<svg width="13" height="14" viewBox="0 0 13 14" fill="none" xmlns="http://www.w3.org/2000/svg">
<path d="M3.00084 0.862985L1.59054 8.8798C1.58268 8.91849 1.56169 8.95327 1.53112 8.97826C1.50055 9.00324 1.46229 9.01689 1.42281 9.01689C1.38333 9.01689 1.34506 9.00324 1.31449 8.97826C1.28393 8.95327 1.26293 8.91849 1.25508 8.8798L0.0090836 1.84883C-0.00556651 1.75979 -0.00247122 1.66874 0.0181915 1.5809C0.0388543 1.49307 0.0766768 1.41018 0.129484 1.33702C0.182291 1.26385 0.249042 1.20184 0.325896 1.15456C0.402751 1.10729 0.488194 1.07567 0.577312 1.06152L2.81599 0.664448C2.84209 0.661994 2.8684 0.665567 2.8929 0.674891C2.91739 0.684214 2.93942 0.699039 2.95728 0.718223C2.97514 0.737406 2.98836 0.760435 2.99591 0.785534C3.00346 0.810633 3.00515 0.837131 3.00084 0.862985Z" fill="#4640DE"/>
<path d="M8.39579 0.650783L11.5313 1.20532C11.6239 1.21913 11.7127 1.25178 11.7922 1.30126C11.8717 1.35075 11.9401 1.416 11.9934 1.493C12.0466 1.57 12.0835 1.6571 12.1018 1.74892C12.1201 1.84075 12.1193 1.93534 12.0995 2.02685L10.1621 12.8437C10.1343 12.9964 10.0555 13.1351 9.93859 13.2371C9.82167 13.3391 9.67357 13.3983 9.51856 13.4051H9.40217L5.58204 12.7205L2.40544 12.1591C2.31406 12.1437 2.22677 12.1098 2.14887 12.0596C2.07096 12.0094 2.00406 11.9439 1.95221 11.8671C1.90036 11.7903 1.86465 11.7038 1.84723 11.6127C1.82982 11.5217 1.83107 11.4281 1.8509 11.3376L3.74043 0.56863C3.73722 0.548217 3.73722 0.527428 3.74043 0.507015C3.78055 0.357658 3.87005 0.226285 3.99437 0.134292C4.11868 0.0422996 4.27048 -0.00489276 4.42504 0.000401512H4.54827L5.55465 0.178401L8.39579 0.650783Z" fill="#B4B1FF"/>
</svg>
