<svg width="12" height="12" viewBox="0 0 12 12" fill="none" xmlns="http://www.w3.org/2000/svg">
<path d="M10.7769 1.26562C10.7769 1.07147 10.6195 0.914062 10.4254 0.914062H9.01913C8.82498 0.914062 8.66757 1.07147 8.66757 1.26562V1.299L10.7769 3.16022V1.26562Z" fill="#4640DE"/>
<path d="M11.8107 5.00981L6.23256 0.0879346C6.09969 -0.0292998 5.90026 -0.0293232 5.76737 0.0879346L0.189245 5.00981C0.043651 5.13827 0.029776 5.36044 0.158237 5.50603C0.286698 5.65162 0.508862 5.6655 0.654456 5.53704L1.40671 4.87329V11.2968H1.07809C0.883932 11.2968 0.726526 11.4542 0.726526 11.6484C0.726526 11.8425 0.883932 12 1.07809 12H10.9218C11.116 12 11.2734 11.8425 11.2734 11.6484C11.2734 11.4542 11.116 11.2968 10.9218 11.2968H10.5932V4.87326L11.3455 5.53704C11.4124 5.59603 11.4953 5.625 11.578 5.62497C11.6753 5.62497 11.7722 5.58475 11.8417 5.50601C11.9702 5.36044 11.9563 5.13827 11.8107 5.00981ZM7.71095 8.88328C7.19989 9.41233 6.47265 9.94617 5.99996 9.94617C5.50766 9.94617 4.76867 9.34467 4.28546 8.82958C3.87189 8.38875 3.17807 7.52168 3.17807 6.66778C3.17807 5.75676 3.91925 5.0156 4.83027 5.0156C5.27999 5.0156 5.69598 5.193 5.99999 5.49888C6.30402 5.193 6.71996 5.0156 7.16971 5.0156C8.08072 5.0156 8.82191 5.75676 8.82191 6.66778C8.82189 7.59478 8.12586 8.45376 7.71095 8.88328Z" fill="#B4B1FF"/>
<path d="M7.16956 5.71875C6.80356 5.71875 6.47642 5.92334 6.31585 6.25266C6.25692 6.3735 6.13428 6.45014 5.99984 6.45014C5.8654 6.45014 5.74275 6.37348 5.68383 6.25266C5.52326 5.92334 5.19614 5.71875 4.83012 5.71875C4.30681 5.71875 3.88104 6.14449 3.88104 6.66781C3.88104 7.10391 4.21892 7.7269 4.78484 8.33435C5.33712 8.92713 5.86212 9.23649 6.00085 9.24309C6.14114 9.24087 6.6664 8.95397 7.20964 8.39011C7.78732 7.79051 8.11864 7.16274 8.11864 6.66781C8.11864 6.14449 7.69287 5.71875 7.16956 5.71875Z" fill="#4640DE"/>
</svg>
