<svg width="13" height="14" viewBox="0 0 13 14" fill="none" xmlns="http://www.w3.org/2000/svg">
<path d="M6.5625 8.3125H5.6875V12.6875H6.5625V8.3125Z" fill="#B4B1FF"/>
<path d="M9.625 1.96875L9.40625 6.34375C9.40625 6.34375 12.25 6.125 12.25 4.15625V2.1875C12.25 2.0667 12.1521 1.96875 12.0312 1.96875H9.625ZM11.375 4.15625C11.375 4.33106 11.3571 4.87616 10.5 5.25V2.84375H11.375V4.15625Z" fill="#B4B1FF"/>
<path d="M0.21875 2.04163C0.0979453 2.04163 0 2.13957 0 2.26038V4.22913C0 6.19788 2.84375 6.41663 2.84375 6.41663L2.625 2.04163H0.21875ZM0.875 2.91663H1.75V5.32288C0.902344 4.94903 0.875 4.40393 0.875 4.22913V2.91663Z" fill="#B4B1FF"/>
<path d="M9.70183 1.98268L6.20183 0.670175C6.15228 0.651608 6.09773 0.651608 6.04821 0.670175L2.54821 1.98268C2.44918 2.01981 2.39093 2.12246 2.40977 2.22653C2.42861 2.3306 2.51926 2.40626 2.62502 2.40626H9.62502C9.73079 2.40626 9.82141 2.3306 9.84027 2.22653C9.85914 2.12246 9.80087 2.01981 9.70183 1.98268Z" fill="#B4B1FF"/>
<path d="M6.125 0C5.76313 0 5.46875 0.294383 5.46875 0.65625C5.46875 1.01812 5.76313 1.3125 6.125 1.3125C6.48687 1.3125 6.78125 1.01812 6.78125 0.65625C6.78125 0.294383 6.48687 0 6.125 0Z" fill="#B4B1FF"/>
<path d="M9.84375 1.96875H2.40625V5.20909C2.40625 7.26116 4.05125 8.95691 6.10329 8.96869C8.16372 8.98051 9.84375 7.30775 9.84375 5.25V1.96875Z" fill="#B4B1FF"/>
<path d="M6.77089 8.74997C4.71496 8.74434 3.0625 7.04955 3.0625 4.99362V1.96875H2.40625V5.21172C2.40625 7.26261 4.05054 8.95587 6.1014 8.96869C6.64158 8.97206 7.1555 8.8594 7.62005 8.65462C7.34716 8.71776 7.06286 8.75079 6.77089 8.74997Z" fill="#4640DE"/>
<path d="M6.5625 11.5938H5.6875C4.8125 12.4688 2.625 13.125 2.625 13.125H9.625C9.625 13.125 7.4375 12.4688 6.5625 11.5938Z" fill="#B4B1FF"/>
<path d="M5.68792 11.5938C4.81292 12.4688 2.62542 13.125 2.62542 13.125H3.71917C3.71917 13.125 5.68792 12.4688 6.56292 11.5938H5.68792Z" fill="#4640DE"/>
<path d="M9.40625 14H2.84375C2.72295 14 2.625 13.9021 2.625 13.7812V13.125H9.625V13.7812C9.625 13.9021 9.52705 14 9.40625 14Z" fill="#4640DE"/>
<path d="M3.5 13.7812V13.125H2.625V13.7812C2.625 13.9021 2.72295 14 2.84375 14H3.71875C3.59795 14 3.5 13.9021 3.5 13.7812Z" fill="#4640DE"/>
</svg>
