<svg width="96" height="49" viewBox="0 0 96 49" fill="none" xmlns="http://www.w3.org/2000/svg">
<rect x="0.5" y="0.5" width="95" height="48" rx="3.5" fill="white" stroke="#E5E5E5"/>
<path d="M42.5859 30V20.2344H46.0312V18.7266H37.3828V20.2344H40.8359V30H42.5859ZM45.7266 30H47.4141V25.0781C47.4141 23.9141 48.0859 23.1875 49.1719 23.1875C49.5 23.1875 49.7969 23.2266 49.9297 23.2812V21.7109C49.8047 21.6875 49.5938 21.6484 49.3516 21.6484C48.3828 21.6484 47.6484 22.2188 47.375 23.1797H47.3359V21.7812H45.7266V30ZM53.2109 30.1406C54.2891 30.1406 55.3281 29.5625 55.8047 28.6484H55.8438V30H57.4609V24.3359C57.4609 22.6875 56.1875 21.6328 54.1953 21.6328C52.1641 21.6328 50.8984 22.7266 50.8047 24.2109H52.3984C52.5469 23.4766 53.1562 23.0078 54.1328 23.0078C55.1641 23.0078 55.7812 23.5547 55.7812 24.4688V25.1016L53.5312 25.2344C51.5781 25.3438 50.4766 26.2266 50.4766 27.6641C50.4766 29.1406 51.6016 30.1406 53.2109 30.1406ZM53.6797 28.8047C52.7734 28.8047 52.1797 28.3359 52.1797 27.6172C52.1797 26.9141 52.75 26.4688 53.7578 26.3984L55.7812 26.2734V26.9219C55.7812 27.9922 54.8594 28.8047 53.6797 28.8047ZM66.1016 21.7812H64.3359L62.2734 28.3516H62.2422L60.1797 21.7812H58.3828L61.3438 30H63.1562L66.1016 21.7812ZM72.2812 27.5859C72.0547 28.3047 71.3438 28.7891 70.3828 28.7891C69.0312 28.7891 68.1719 27.8438 68.1719 26.4141V26.3125H73.9766V25.7344C73.9766 23.2422 72.5547 21.6328 70.2734 21.6328C67.9531 21.6328 66.4688 23.3516 66.4688 25.9297C66.4688 28.5234 67.9297 30.1562 70.3438 30.1562C72.2266 30.1562 73.6484 29.0859 73.8828 27.5859H72.2812ZM70.2734 22.9922C71.4531 22.9922 72.25 23.875 72.2891 25.1328H68.1797C68.2656 23.8906 69.0938 22.9922 70.2734 22.9922ZM75.3516 30H77.0391V18.7266H75.3516V30Z" fill="#081531"/>
<path d="M23.3704 19.4009H22.7824C22.1395 19.4022 21.5166 19.6246 21.0183 20.0309C20.9963 20.0465 20.9709 20.0568 20.9442 20.061C20.9175 20.0652 20.8902 20.0631 20.8645 20.055C20.8387 20.0469 20.8152 20.0329 20.7957 20.0141C20.7762 19.9954 20.7614 19.9724 20.7523 19.9469L20.1783 18.2319C20.1694 18.2054 20.1669 18.1771 20.1711 18.1494C20.1753 18.1218 20.1861 18.0956 20.2026 18.0729C20.219 18.0503 20.2407 18.032 20.2657 18.0194C20.2907 18.0069 20.3183 18.0005 20.3463 18.0009H22.4044C22.5499 18.0019 22.6915 18.0484 22.8095 18.1337C22.9274 18.219 23.0158 18.339 23.0624 18.4769L23.3704 19.4009Z" fill="#B4B1FF"/>
<path d="M28.424 18.2318L27.857 19.9469C27.8479 19.9723 27.8331 19.9953 27.8136 20.0141C27.7942 20.0328 27.7706 20.0468 27.7449 20.055C27.7191 20.0631 27.6918 20.0652 27.6651 20.061C27.6384 20.0568 27.613 20.0465 27.591 20.0309C27.0909 19.6231 26.4653 19.4005 25.8199 19.4009H25.2319L25.5399 18.4838C25.5874 18.3377 25.6817 18.2111 25.8082 18.1238C25.9347 18.0366 26.0864 17.9933 26.24 18.0008H28.291C28.3159 18.0054 28.3396 18.0154 28.3603 18.03C28.381 18.0447 28.3982 18.0636 28.4109 18.0856C28.4235 18.1076 28.4313 18.132 28.4335 18.1573C28.4358 18.1825 28.4325 18.208 28.424 18.2318Z" fill="#B4B1FF"/>
<path d="M30.6013 26.905V29.9011C30.6013 30.2724 30.4538 30.6285 30.1913 30.8911C29.9287 31.1536 29.5726 31.3011 29.2013 31.3011H28.9983C29.0886 31.0356 29.1267 30.7551 29.1103 30.4751L28.9913 28.5011L28.9493 27.801L28.8373 25.813L29.1593 25.918L29.8593 26.163L30.0973 26.24C30.2416 26.2821 30.3685 26.3694 30.4592 26.4892C30.55 26.609 30.5998 26.7548 30.6013 26.905Z" fill="#4640DE"/>
<path d="M19.765 25.813L19.653 27.801L19.611 28.5011L19.492 30.4751C19.4756 30.7551 19.5136 31.0356 19.604 31.3011H19.401C19.0297 31.3011 18.6736 31.1536 18.411 30.8911C18.1485 30.6285 18.001 30.2724 18.001 29.9011V26.905C17.993 26.7524 18.0352 26.6013 18.1212 26.4749C18.2071 26.3485 18.3321 26.2537 18.477 26.205L18.701 26.163L19.401 25.918L19.765 25.813Z" fill="#4640DE"/>
<path d="M27.9204 22.0749C27.896 21.6702 27.755 21.2812 27.5143 20.9549C27.3188 20.6896 27.0636 20.474 26.7693 20.3256C26.475 20.1773 26.1499 20.1003 25.8203 20.1008H22.7822C22.4526 20.1003 22.1276 20.1773 21.8333 20.3256C21.539 20.474 21.2837 20.6896 21.0882 20.9549C20.8476 21.2812 20.7066 21.6702 20.6822 22.0749L20.6262 22.9919C20.6242 23.0213 20.6296 23.0507 20.642 23.0774C20.6544 23.1042 20.6734 23.1273 20.6971 23.1448C20.7208 23.1622 20.7486 23.1734 20.7778 23.1773C20.807 23.1812 20.8367 23.1776 20.8642 23.1669C21.2878 22.9904 21.7423 22.9 22.2012 22.9009H26.4013C26.8602 22.9 27.3147 22.9904 27.7384 23.1669C27.7658 23.1776 27.7955 23.1812 27.8247 23.1773C27.8539 23.1734 27.8817 23.1622 27.9054 23.1448C27.9292 23.1273 27.9481 23.1042 27.9605 23.0774C27.9729 23.0507 27.9784 23.0213 27.9764 22.9919L27.9204 22.0749Z" fill="#4640DE"/>
<path d="M28.0605 24.497C28.0537 24.3711 28.0131 24.2493 27.9429 24.1446C27.8726 24.0399 27.7754 23.956 27.6615 23.902C27.2718 23.7018 26.8396 23.5985 26.4015 23.601H22.2013C21.7612 23.6004 21.3271 23.7035 20.9343 23.902C20.8217 23.957 20.7259 24.0412 20.6569 24.1459C20.588 24.2506 20.5484 24.3718 20.5423 24.497L20.1853 30.5172C20.1738 30.708 20.2015 30.8991 20.2668 31.0788C20.332 31.2585 20.4333 31.4229 20.5644 31.5619C20.6956 31.7009 20.8538 31.8117 21.0294 31.8872C21.205 31.9628 21.3942 32.0016 21.5853 32.0012H27.0175C27.2086 32.0016 27.3978 31.9628 27.5734 31.8872C27.749 31.8117 27.9072 31.7009 28.0384 31.5619C28.1695 31.4229 28.2708 31.2585 28.336 31.0788C28.4013 30.8991 28.429 30.708 28.4175 30.5172L28.0605 24.497ZM24.6514 28.1511H23.9514C23.8586 28.1511 23.7695 28.1142 23.7039 28.0486C23.6383 27.983 23.6014 27.8939 23.6014 27.8011C23.6014 27.7083 23.6383 27.6192 23.7039 27.5536C23.7695 27.488 23.8586 27.4511 23.9514 27.4511H24.6514C24.7442 27.4511 24.8333 27.488 24.8989 27.5536C24.9645 27.6192 25.0014 27.7083 25.0014 27.8011C25.0014 27.8939 24.9645 27.983 24.8989 28.0486C24.8333 28.1142 24.7442 28.1511 24.6514 28.1511Z" fill="#B4B1FF"/>
</svg>
