<svg width="8" height="16" viewBox="0 0 8 16" fill="none" xmlns="http://www.w3.org/2000/svg">
<path d="M5.53691 4.23619C5.55278 4.37225 5.53348 4.51011 5.48085 4.63659C5.24281 5.23598 5.04746 5.85146 4.89627 6.47842C4.80818 6.20615 4.71209 5.94189 4.60798 5.67762L4.19157 4.6526C4.13471 4.51884 4.11533 4.37212 4.13551 4.22818C4.26296 3.32729 4.4996 2.44526 4.84021 1.60156C5.18184 2.44714 5.4159 3.33227 5.53691 4.23619Z" fill="#B4B1FF"/>
<path d="M7.35441 5.65358C7.0791 6.06766 6.91122 6.54377 6.86592 7.03896L6.75381 8.80872C6.75042 8.85133 6.734 8.89186 6.70678 8.92481C6.67956 8.95776 6.64286 8.98153 6.60166 8.9929C6.18668 9.10708 5.76375 9.19006 5.3364 9.24115C5.40135 6.8881 6.12855 4.60105 7.43449 2.64258L7.67473 3.59553C7.76215 3.94251 7.77884 4.30355 7.72381 4.65712C7.66878 5.01069 7.54315 5.34957 7.35441 5.65358Z" fill="#B4B1FF"/>
<path d="M3.23054 5.021V5.47746L3.15046 5.67766C2.95701 6.15381 2.79909 6.64364 2.67799 7.14312C2.543 6.08828 2.18836 5.07346 1.63695 4.16415C1.63695 3.9159 1.63695 3.66765 1.63695 3.41941C1.63695 3.3153 1.63695 3.20319 1.63695 3.09909C1.72792 2.38972 1.88338 1.69013 2.10141 1.00901C2.19817 0.666788 2.31312 0.329974 2.44575 0C3.0844 1.59259 3.35275 3.30949 3.23054 5.021Z" fill="#B4B1FF"/>
<path d="M1.96498 9.17718C1.58712 9.11109 1.21291 9.02555 0.843859 8.92093C0.801254 8.91754 0.760725 8.90112 0.727774 8.8739C0.694823 8.84668 0.671048 8.80998 0.659676 8.76878L0.355372 7.34336C0.164631 6.41613 0.164631 5.45978 0.355372 4.53256L0.4835 3.88391C1.15702 4.77763 1.60233 5.82217 1.78079 6.92694L1.96498 9.17718Z" fill="#B4B1FF"/>
<path d="M4.66318 9.31333C4.40692 9.31333 4.15067 9.31333 3.86238 9.31333C3.57409 9.31333 3.34987 9.31333 3.06158 9.31333C3.10972 8.5649 3.2386 7.82386 3.44596 7.10312C3.55807 6.71874 3.6862 6.34237 3.83035 5.974C3.83035 6.04607 3.8864 6.12615 3.91843 6.19822C4.31795 7.1945 4.56888 8.24408 4.66318 9.31333Z" fill="#B4B1FF"/>
<path d="M7.71466 10.0981L6.99394 15.1271C6.97094 15.2956 6.8949 15.4523 6.77684 15.5747C6.65878 15.6971 6.50483 15.7787 6.33729 15.8078C4.69492 16.0641 3.02272 16.0641 1.38035 15.8078C1.21281 15.7787 1.05886 15.6971 0.940802 15.5747C0.822743 15.4523 0.746704 15.2956 0.723697 15.1271L0.00297881 10.0981C-0.00478379 10.0348 0.00267829 9.97057 0.0247439 9.91075C0.0468095 9.85093 0.0828407 9.79725 0.12984 9.75417C0.176839 9.71109 0.233447 9.67985 0.294953 9.66306C0.35646 9.64627 0.421087 9.64441 0.483458 9.65764C1.59423 9.89458 2.72706 10.0127 3.86282 10.01C4.99591 10.0121 6.12602 9.89401 7.23418 9.65764C7.29655 9.64441 7.36118 9.64627 7.42269 9.66306C7.48419 9.67985 7.5408 9.71109 7.5878 9.75417C7.6348 9.79725 7.67083 9.85093 7.6929 9.91075C7.71496 9.97057 7.72242 10.0348 7.71466 10.0981Z" fill="#4640DE"/>
</svg>
