<svg width="15" height="12" viewBox="0 0 15 12" fill="none" xmlns="http://www.w3.org/2000/svg">
<path d="M2.92189 0.974964C2.19407 2.53494 1.98386 4.2867 2.32194 5.97458C2.31792 6.0523 2.31792 6.13017 2.32194 6.20789L2.22194 7.29948C2.21767 7.35547 2.19183 7.40762 2.14986 7.44492C2.10788 7.48223 2.05307 7.50178 1.99696 7.49946C1.95394 7.50062 1.91161 7.48842 1.8758 7.46455C1.83999 7.44068 1.81245 7.4063 1.79698 7.36614L0.147103 3.57476C-0.0151795 3.1994 -0.0441588 2.77981 0.0649795 2.3857C0.174118 1.99159 0.414804 1.64668 0.747057 1.40826L2.2886 0.300016C2.43931 0.192117 2.61989 0.133865 2.80523 0.133362C2.9921 0.122987 3.17701 0.17582 3.33019 0.28335V0.333347C3.16216 0.525143 3.02447 0.741519 2.92189 0.974964Z" fill="#4640DE"/>
<path d="M14.8456 3.57471L13.2291 7.32442C13.2136 7.36458 13.186 7.39896 13.1502 7.42283C13.1144 7.4467 13.0721 7.4589 13.0291 7.45774C12.973 7.46006 12.9181 7.44051 12.8762 7.4032C12.8342 7.3659 12.8084 7.31375 12.8041 7.25776L12.7041 6.16617C12.7081 6.08845 12.7081 6.01058 12.7041 5.93286C13.0422 4.24497 12.832 2.49322 12.1041 0.933243C11.9877 0.712323 11.8389 0.510093 11.6625 0.33329V0.283294C11.8065 0.18274 11.9785 0.130246 12.1541 0.133305C12.3395 0.133808 12.5201 0.19206 12.6708 0.299959L14.2456 1.40821C14.5779 1.64662 14.8186 1.99153 14.9277 2.38564C15.0369 2.77975 15.0079 3.19934 14.8456 3.57471Z" fill="#4640DE"/>
<path d="M11.9466 3.5664C11.8574 2.79004 11.6436 2.03315 11.3133 1.3249C11.2177 1.13123 11.0778 0.962805 10.905 0.833274C10.7872 0.729519 10.6517 0.64768 10.505 0.591626L9.99675 0.399974C8.3444 -0.133325 6.56615 -0.133325 4.9138 0.399974L4.47217 0.558295C4.32889 0.62613 4.19904 0.719285 4.08887 0.833274C3.91293 0.969867 3.77281 1.14716 3.68056 1.3499C3.35031 2.05815 3.13647 2.81504 3.04728 3.59139C3.01388 3.9851 3.01388 4.38093 3.04728 4.77464C3.04654 5.14716 3.08565 5.51868 3.16394 5.88288C3.23122 6.21697 3.32313 6.54562 3.43892 6.86614L3.74723 7.69941C3.8639 8.03834 4.02953 8.35837 4.23886 8.64934C4.4658 8.93915 4.64061 9.26622 4.75548 9.61593L4.84714 9.89091C5.01297 10.3876 5.3306 10.8197 5.75521 11.1262C6.17982 11.4327 6.68996 11.5981 7.21363 11.5991H7.78025C8.30392 11.5981 8.81406 11.4327 9.23867 11.1262C9.66327 10.8197 9.98091 10.3876 10.1467 9.89091L10.2384 9.61593C10.3533 9.26622 10.5281 8.93915 10.755 8.64934C10.9643 8.35837 11.13 8.03834 11.2466 7.69941L11.555 6.86614C11.6707 6.54562 11.7627 6.21697 11.8299 5.88288C11.9212 5.51176 11.9715 5.13174 11.9799 4.74964C12.0022 4.35499 11.9911 3.95916 11.9466 3.5664ZM6.03872 5.58291H5.41376C5.29016 5.58291 5.16933 5.54626 5.06656 5.47758C4.96379 5.40891 4.88369 5.31131 4.83638 5.19711C4.78908 5.08292 4.77671 4.95726 4.80082 4.83603C4.82493 4.71481 4.88446 4.60345 4.97186 4.51605C5.05926 4.42865 5.17061 4.36913 5.29184 4.34501C5.41307 4.3209 5.53873 4.33327 5.65292 4.38058C5.76712 4.42788 5.86472 4.50798 5.93339 4.61075C6.00206 4.71352 6.03872 4.83435 6.03872 4.95796V5.58291ZM8.53852 9.64093L8.09689 10.0826C8.01943 10.1607 7.92727 10.2227 7.82573 10.265C7.72418 10.3073 7.61527 10.329 7.50527 10.329C7.39527 10.329 7.28636 10.3073 7.18481 10.265C7.08327 10.2227 6.99111 10.1607 6.91365 10.0826L6.47202 9.64093C6.45209 9.62223 6.43621 9.59964 6.42535 9.57456C6.41449 9.54948 6.40889 9.52244 6.40889 9.49511C6.40889 9.46778 6.41449 9.44074 6.42535 9.41566C6.43621 9.39058 6.45209 9.36799 6.47202 9.34929C6.60693 9.21223 6.76777 9.10338 6.94516 9.02909C7.12255 8.95479 7.31295 8.91653 7.50527 8.91653C7.69759 8.91653 7.88799 8.95479 8.06538 9.02909C8.24277 9.10338 8.40361 9.21223 8.53852 9.34929C8.55898 9.36687 8.57549 9.38859 8.58698 9.413C8.59847 9.43741 8.60467 9.46397 8.60519 9.49094C8.60376 9.51977 8.59636 9.54799 8.58345 9.57381C8.57054 9.59963 8.5524 9.62249 8.53019 9.64093H8.53852ZM9.58011 5.58291H8.95516V4.95796C8.95516 4.83435 8.99181 4.71352 9.06048 4.61075C9.12915 4.50798 9.22676 4.42788 9.34095 4.38058C9.45515 4.33327 9.5808 4.3209 9.70203 4.34501C9.82326 4.36913 9.93462 4.42865 10.022 4.51605C10.1094 4.60345 10.1689 4.71481 10.1931 4.83603C10.2172 4.95726 10.2048 5.08292 10.1575 5.19711C10.1102 5.31131 10.0301 5.40891 9.92732 5.47758C9.82454 5.54626 9.70371 5.58291 9.58011 5.58291Z" fill="#B4B1FF"/>
</svg>
