<svg width="105" height="49" viewBox="0 0 105 49" fill="none" xmlns="http://www.w3.org/2000/svg">
<rect x="0.5" y="0.5" width="104" height="48" rx="3.5" fill="white" stroke="#E5E5E5"/>
<path d="M25.0103 18H19.0905C19.0045 18 18.9348 18.0697 18.9348 18.1558V19.7136C18.9348 19.7997 19.0045 19.8694 19.0905 19.8694H25.0103C25.0964 19.8694 25.1661 19.7997 25.1661 19.7136V18.1558C25.1661 18.0697 25.0964 18 25.0103 18Z" fill="#B4B1FF"/>
<path d="M21.7388 23.2967C21.6682 23.2955 21.5996 23.3198 21.5456 23.3652C21.5092 23.3945 21.4797 23.4315 21.4593 23.4735C21.4388 23.5155 21.4278 23.5615 21.4272 23.6082V27.9702C21.4288 28.0523 21.4621 28.1307 21.5202 28.1887C21.5783 28.2468 21.6566 28.2802 21.7388 28.2818H25.9449C25.9862 28.2818 26.0259 28.2653 26.0551 28.2361C26.0843 28.2069 26.1007 28.1673 26.1007 28.126V23.4525C26.1007 23.4111 26.0843 23.3715 26.0551 23.3423C26.0259 23.3131 25.9862 23.2967 25.9449 23.2967H21.7388ZM23.9633 26.6616C23.7981 26.6616 23.6396 26.596 23.5227 26.4791C23.4059 26.3622 23.3402 26.2037 23.3402 26.0385C23.3774 25.8131 23.4671 25.5997 23.6019 25.4153C23.7132 25.2427 23.8338 25.0763 23.9633 24.9168C24.0929 25.0763 24.2135 25.2427 24.3248 25.4153C24.4613 25.5987 24.5511 25.8126 24.5865 26.0385C24.5865 26.2037 24.5208 26.3622 24.404 26.4791C24.2871 26.596 24.1286 26.6616 23.9633 26.6616Z" fill="#B4B1FF"/>
<path d="M18.081 22.6735C18.1257 22.6735 18.162 22.6372 18.162 22.5925C18.162 22.5477 18.1257 22.5115 18.081 22.5115C18.0363 22.5115 18 22.5477 18 22.5925C18 22.6372 18.0363 22.6735 18.081 22.6735Z" fill="#383838"/>
<path d="M18.9347 23.6082V27.9702C18.934 28.0169 18.9231 28.0629 18.9026 28.1049C18.8822 28.1469 18.8527 28.1839 18.8163 28.2132C18.7623 28.2585 18.6937 28.2829 18.6231 28.2817H18.0748C18.0554 28.2803 18.0372 28.2719 18.0235 28.2582C18.0098 28.2445 18.0014 28.2263 18 28.2069V23.3714C18.0014 23.3521 18.0098 23.3339 18.0235 23.3201C18.0372 23.3064 18.0554 23.2981 18.0748 23.2966H18.6231C18.7053 23.2982 18.7836 23.3316 18.8417 23.3897C18.8998 23.4477 18.9331 23.5261 18.9347 23.6082Z" fill="#B4B1FF"/>
<path d="M18.081 29.3722C18.1257 29.3722 18.162 29.336 18.162 29.2912C18.162 29.2465 18.1257 29.2102 18.081 29.2102C18.0363 29.2102 18 29.2465 18 29.2912C18 29.336 18.0363 29.3722 18.081 29.3722Z" fill="#383838"/>
<path d="M20.8041 23.6082V27.9702C20.8039 28.1025 20.8322 28.2333 20.887 28.3537C20.9419 28.4742 21.022 28.5814 21.1219 28.6681C21.2919 28.8236 21.5147 28.9083 21.745 28.9049H25.9512C25.9925 28.9049 26.0322 28.9213 26.0614 28.9505C26.0906 28.9797 26.107 29.0194 26.107 29.0607V29.2165C26.107 29.547 25.9757 29.864 25.742 30.0977C25.5083 30.3314 25.1913 30.4627 24.8607 30.4627H19.2525C18.922 30.4627 18.605 30.3314 18.3713 30.0977C18.1375 29.864 18.0062 29.547 18.0062 29.2165V28.9859C18.0062 28.9655 18.0138 28.9457 18.0277 28.9307C18.0416 28.9157 18.0606 28.9065 18.081 28.9049H18.6231C18.8534 28.9083 19.0763 28.8236 19.2463 28.6681C19.3451 28.5808 19.424 28.4733 19.4778 28.3529C19.5315 28.2325 19.5588 28.102 19.5578 27.9702V23.6082C19.558 23.4759 19.5298 23.3451 19.4749 23.2247C19.4201 23.1043 19.34 22.997 19.24 22.9103C19.0701 22.7549 18.8472 22.6702 18.6169 22.6735H18.0748C18.0544 22.672 18.0354 22.6627 18.0215 22.6477C18.0076 22.6327 17.9999 22.613 18 22.5925V22.362C18 22.0314 18.1313 21.7144 18.365 21.4807C18.5987 21.247 18.9157 21.1157 19.2463 21.1157V20.5673C19.2477 20.548 19.2561 20.5298 19.2698 20.5161C19.2835 20.5023 19.3017 20.494 19.321 20.4926H24.7735C24.7939 20.4925 24.8137 20.5002 24.8287 20.514C24.8437 20.5279 24.8529 20.5469 24.8545 20.5673V21.1157C25.185 21.1157 25.502 21.247 25.7357 21.4807C25.9695 21.7144 26.1008 22.0314 26.1008 22.362V22.5988C26.1008 22.6091 26.0987 22.6194 26.0945 22.6289C26.0904 22.6384 26.0843 22.6469 26.0767 22.654C26.0691 22.661 26.0601 22.6664 26.0503 22.6697C26.0405 22.6731 26.0301 22.6744 26.0198 22.6735H21.7388C21.5085 22.6702 21.2856 22.7549 21.1157 22.9103C21.0169 22.9976 20.9379 23.1051 20.8842 23.2255C20.8304 23.3459 20.8031 23.4764 20.8041 23.6082Z" fill="#4640DE"/>
<path d="M44.4453 30V18.7266H42.4141L38.7734 27.7109H38.7109L35.0625 18.7266H33.0391V30H34.6328V21.7031H34.6875L38.0938 30H39.3906L42.7891 21.7031H42.8438V30H44.4453ZM51.7656 27.5859C51.5391 28.3047 50.8281 28.7891 49.8672 28.7891C48.5156 28.7891 47.6562 27.8438 47.6562 26.4141V26.3125H53.4609V25.7344C53.4609 23.2422 52.0391 21.6328 49.7578 21.6328C47.4375 21.6328 45.9531 23.3516 45.9531 25.9297C45.9531 28.5234 47.4141 30.1562 49.8281 30.1562C51.7109 30.1562 53.1328 29.0859 53.3672 27.5859H51.7656ZM49.7578 22.9922C50.9375 22.9922 51.7344 23.875 51.7734 25.1328H47.6641C47.75 23.8906 48.5781 22.9922 49.7578 22.9922ZM57.8594 30.1406C59.0547 30.1406 59.9922 29.5391 60.4766 28.6016H60.5078V30H62.1484V18.7266H60.4531V23.1484H60.4219C59.9609 22.2422 59.0234 21.6484 57.8438 21.6484C55.7812 21.6484 54.4062 23.2969 54.4062 25.8906C54.4062 28.4844 55.7812 30.1406 57.8594 30.1406ZM58.3047 23.0703C59.6016 23.0703 60.4688 24.1875 60.4688 25.8906C60.4688 27.6094 59.6016 28.7109 58.3047 28.7109C56.9688 28.7109 56.1328 27.625 56.1328 25.8906C56.1328 24.1641 56.9688 23.0703 58.3047 23.0703ZM64.7812 20.4531C65.3203 20.4531 65.75 20.0156 65.75 19.4844C65.75 18.9453 65.3203 18.5156 64.7812 18.5156C64.2422 18.5156 63.8047 18.9453 63.8047 19.4844C63.8047 20.0156 64.2422 20.4531 64.7812 20.4531ZM63.9375 30H65.625V21.7812H63.9375V30ZM74.4062 24.6094C74.2578 22.9922 72.9688 21.6328 70.8516 21.6328C68.5156 21.6328 66.9844 23.2812 66.9844 25.8906C66.9844 28.5469 68.5156 30.1562 70.8672 30.1562C72.8438 30.1562 74.2422 28.9688 74.4219 27.2188H72.7969C72.6016 28.1719 71.9219 28.7422 70.8828 28.7422C69.5703 28.7422 68.7031 27.6953 68.7031 25.8906C68.7031 24.125 69.5625 23.0391 70.8672 23.0391C71.9688 23.0391 72.625 23.7344 72.7969 24.6094H74.4062ZM78.0234 30.1406C79.1016 30.1406 80.1406 29.5625 80.6172 28.6484H80.6562V30H82.2734V24.3359C82.2734 22.6875 81 21.6328 79.0078 21.6328C76.9766 21.6328 75.7109 22.7266 75.6172 24.2109H77.2109C77.3594 23.4766 77.9688 23.0078 78.9453 23.0078C79.9766 23.0078 80.5938 23.5547 80.5938 24.4688V25.1016L78.3438 25.2344C76.3906 25.3438 75.2891 26.2266 75.2891 27.6641C75.2891 29.1406 76.4141 30.1406 78.0234 30.1406ZM78.4922 28.8047C77.5859 28.8047 76.9922 28.3359 76.9922 27.6172C76.9922 26.9141 77.5625 26.4688 78.5703 26.3984L80.5938 26.2734V26.9219C80.5938 27.9922 79.6719 28.8047 78.4922 28.8047ZM83.9766 30H85.6641V18.7266H83.9766V30Z" fill="#081531"/>
</svg>
