<svg width="11" height="14" viewBox="0 0 11 14" fill="none" xmlns="http://www.w3.org/2000/svg">
<path d="M3.64342 6.79062V13.0844C3.64342 13.1283 3.62597 13.1704 3.59491 13.2015C3.56385 13.2326 3.52172 13.25 3.47779 13.25H0.993417C0.817711 13.25 0.649202 13.1802 0.524959 13.056C0.400716 12.9317 0.330917 12.7632 0.330917 12.5875V6.79062C0.330917 6.7467 0.348367 6.70457 0.379428 6.67351C0.410488 6.64245 0.452616 6.625 0.496542 6.625H3.47779C3.52172 6.625 3.56385 6.64245 3.59491 6.67351C3.62597 6.70457 3.64342 6.7467 3.64342 6.79062Z" fill="#B4B1FF"/>
<path d="M10.2684 6.79063V12.5875C10.2684 12.7632 10.1986 12.9317 10.0744 13.056C9.95013 13.1802 9.78162 13.25 9.60592 13.25H7.12154C7.07762 13.25 7.03549 13.2326 7.00443 13.2015C6.97337 13.1704 6.95592 13.1283 6.95592 13.0844V6.79063C6.95592 6.7467 6.97337 6.70457 7.00443 6.67351C7.03549 6.64245 7.07762 6.625 7.12154 6.625H10.1028C10.1467 6.625 10.1888 6.64245 10.2199 6.67351C10.251 6.70457 10.2684 6.7467 10.2684 6.79063Z" fill="#B4B1FF"/>
<path d="M10.5997 3.31252V5.7969C10.5997 5.84083 10.5822 5.88295 10.5512 5.91401C10.5201 5.94508 10.478 5.96252 10.434 5.96252H7.12154C7.07762 5.96252 7.03549 5.94508 7.00443 5.91401C6.97337 5.88295 6.95592 5.84083 6.95592 5.7969V2.81565C6.95592 2.77172 6.97337 2.7296 7.00443 2.69853C7.03549 2.66747 7.07762 2.65002 7.12154 2.65002H9.93717C10.1129 2.65002 10.2814 2.71982 10.4056 2.84407C10.5299 2.96831 10.5997 3.13682 10.5997 3.31252Z" fill="#B4B1FF"/>
<path d="M3.64375 2.81565V5.7969C3.64375 5.84083 3.6263 5.88295 3.59524 5.91401C3.56418 5.94508 3.52205 5.96252 3.47812 5.96252H0.165625C0.121699 5.96252 0.079571 5.94508 0.0485103 5.91401C0.0174496 5.88295 0 5.84083 0 5.7969V3.31252C0 3.13682 0.069799 2.96831 0.194042 2.84407C0.318285 2.71982 0.486794 2.65002 0.6625 2.65002H3.47812C3.52205 2.65002 3.56418 2.66747 3.59524 2.69853C3.6263 2.7296 3.64375 2.77172 3.64375 2.81565Z" fill="#B4B1FF"/>
<path d="M6.12795 2.65002H4.4717C4.38023 2.65002 4.30608 2.72418 4.30608 2.81565V13.0844C4.30608 13.1759 4.38023 13.25 4.4717 13.25H6.12795C6.21942 13.25 6.29358 13.1759 6.29358 13.0844V2.81565C6.29358 2.72418 6.21942 2.65002 6.12795 2.65002Z" fill="#4640DE"/>
<path d="M1.72285 0H3.6441C3.99551 0 4.33253 0.139598 4.58102 0.388083C4.8295 0.636569 4.9691 0.973588 4.9691 1.325V1.82187C4.9691 1.8658 4.95165 1.90793 4.92059 1.93899C4.88953 1.97005 4.8474 1.9875 4.80348 1.9875H3.70373C3.66482 1.98711 3.62729 1.97304 3.59773 1.94775L1.61023 0.284875C1.58659 0.2621 1.57025 0.232815 1.56329 0.200738C1.55633 0.168662 1.55906 0.13524 1.57112 0.104716C1.58319 0.0741911 1.60406 0.0479406 1.63107 0.0292965C1.65809 0.0106524 1.69003 0.000455398 1.72285 0Z" fill="#4640DE"/>
<path d="M8.87767 0H6.95642C6.60501 0 6.26799 0.139598 6.01951 0.388083C5.77102 0.636569 5.63142 0.973588 5.63142 1.325V1.82187C5.63142 1.8658 5.64887 1.90793 5.67993 1.93899C5.71099 1.97005 5.75312 1.9875 5.79705 1.9875H6.8968C6.9357 1.98711 6.97323 1.97304 7.0028 1.94775L8.9903 0.284875C9.01393 0.2621 9.03027 0.232815 9.03723 0.200738C9.04419 0.168662 9.04147 0.13524 9.0294 0.104716C9.01733 0.0741911 8.99647 0.0479406 8.96945 0.0292965C8.94244 0.0106524 8.91049 0.000455398 8.87767 0Z" fill="#4640DE"/>
</svg>
