<svg width="12" height="12" viewBox="0 0 12 12" fill="none" xmlns="http://www.w3.org/2000/svg">
<g clip-path="url(#clip0)">
<path d="M4.62343 7.26415L4.43932 8.35769C4.41422 8.50719 4.47556 8.65785 4.59795 8.74707C4.72054 8.8361 4.88331 8.84802 5.01724 8.77783L6.0004 8.26462L6.98357 8.77793C7.04174 8.80812 7.10548 8.82331 7.16855 8.82331C7.25114 8.82331 7.33353 8.79745 7.40305 8.74716C7.52553 8.65794 7.58706 8.50729 7.56178 8.35778L7.37786 7.26424L8.1695 6.48769C8.27776 6.38164 8.31632 6.22339 8.26988 6.07936C8.22325 5.93544 8.09845 5.83006 7.94866 5.80795L6.85166 5.64528L6.35758 4.65221C6.29057 4.51664 6.15173 4.43079 6.00031 4.43079C5.84917 4.43079 5.71043 4.51664 5.64285 4.65221L5.14924 5.64528L4.05224 5.80785C3.90216 5.82997 3.77794 5.93534 3.73122 6.07927C3.68449 6.22329 3.72295 6.38174 3.8314 6.48759L4.62343 7.26415Z" fill="#4640DE"/>
<path d="M10.7148 1.27573H9.45868V0.578978C9.45868 0.259204 9.19948 0 8.87961 0H8.78779C8.46802 0 8.20891 0.259204 8.20891 0.578978V1.27573H3.77697V0.578978C3.77697 0.259204 3.51776 0 3.19809 0H3.10617C2.7864 0 2.52729 0.259204 2.52729 0.578978V1.27573H1.28578C0.628833 1.27573 0.0941772 1.8102 0.0941772 2.46734V10.8085C0.0941772 11.4652 0.628833 12.0001 1.28578 12.0001H10.7149C11.3718 12.0001 11.9065 11.4653 11.9065 10.8085V2.46734C11.9064 1.8102 11.3717 1.27573 10.7148 1.27573ZM10.5593 10.653H1.44125V2.76923H10.5593V10.653Z" fill="#B4B1FF"/>
</g>
<defs>
<clipPath id="clip0">
<rect width="12" height="12" fill="white"/>
</clipPath>
</defs>
</svg>
