<svg width="74" height="18" viewBox="0 0 74 18" fill="none" xmlns="http://www.w3.org/2000/svg">
<path d="M0 0H8.1436C9.7546 0 11.0676 0.362475 12.0825 1.08742C13.1135 1.79626 13.6291 2.87563 13.6291 4.32553C13.6291 5.13103 13.4196 5.84793 13.0008 6.47622C12.5819 7.0884 12.01 7.55559 11.2851 7.87779C13.3793 8.47386 14.4265 9.87542 14.4265 12.0825C14.4265 13.7096 13.8788 14.9742 12.7833 15.8764C11.6878 16.7624 10.2943 17.2055 8.60274 17.2055H0V0ZM3.67308 2.92396V6.95952H7.10451C9.00549 6.95952 9.95598 6.29095 9.95598 4.95382C9.95598 4.16443 9.69822 3.6328 9.1827 3.35893C8.66718 3.06895 7.97445 2.92396 7.10451 2.92396H3.67308ZM3.67308 9.521V14.209H7.46698C8.44969 14.209 9.22297 14.0479 9.78682 13.7257C10.3668 13.4035 10.6568 12.7833 10.6568 11.865C10.6568 10.9306 10.3507 10.3104 9.73849 10.0043C9.14242 9.68211 8.32081 9.521 7.27366 9.521H3.67308Z" fill="#323232"/>
<path d="M21.8476 4.37386C23.7647 4.37386 25.3032 4.97799 26.4631 6.18624C27.6391 7.39449 28.2272 8.98938 28.2272 10.9709C28.2272 12.9685 27.6391 14.5715 26.4631 15.7797C25.3032 16.988 23.7486 17.5921 21.7993 17.5921C19.85 17.5921 18.2873 16.988 17.1113 15.7797C15.9352 14.5715 15.3472 12.9685 15.3472 10.9709C15.3472 8.98938 15.9433 7.39449 17.1354 6.18624C18.3276 4.97799 19.8983 4.37386 21.8476 4.37386ZM21.7509 6.98368C20.8327 6.98368 20.1077 7.3381 19.5761 8.04694C19.0445 8.75578 18.7787 9.73044 18.7787 10.9709C18.7787 12.2436 19.0445 13.2344 19.5761 13.9432C20.1077 14.652 20.8488 15.0065 21.7993 15.0065C22.7498 15.0065 23.4828 14.652 23.9983 13.9432C24.5299 13.2182 24.7957 12.2194 24.7957 10.9467C24.7957 9.70627 24.5219 8.73967 23.9741 8.04694C23.4425 7.3381 22.7014 6.98368 21.7509 6.98368Z" fill="#323232"/>
<path d="M35.6537 4.37386C37.5708 4.37386 39.1093 4.97799 40.2693 6.18624C41.4453 7.39449 42.0333 8.98938 42.0333 10.9709C42.0333 12.9685 41.4453 14.5715 40.2693 15.7797C39.1093 16.988 37.5547 17.5921 35.6054 17.5921C33.6561 17.5921 32.0934 16.988 30.9174 15.7797C29.7414 14.5715 29.1534 12.9685 29.1534 10.9709C29.1534 8.98938 29.7494 7.39449 30.9416 6.18624C32.1337 4.97799 33.7044 4.37386 35.6537 4.37386ZM35.5571 6.98368C34.6388 6.98368 33.9139 7.3381 33.3822 8.04694C32.8506 8.75578 32.5848 9.73044 32.5848 10.9709C32.5848 12.2436 32.8506 13.2344 33.3822 13.9432C33.9139 14.652 34.6549 15.0065 35.6054 15.0065C36.5559 15.0065 37.2889 14.652 37.8044 13.9432C38.3361 13.2182 38.6019 12.2194 38.6019 10.9467C38.6019 9.70627 38.328 8.73967 37.7803 8.04694C37.2486 7.3381 36.5076 6.98368 35.5571 6.98368Z" fill="#323232"/>
<path d="M55.0662 17.2055H51.5864V9.93181C51.5864 9.04576 51.4414 8.3772 51.1514 7.92612C50.8615 7.45893 50.2976 7.22533 49.4599 7.22533C47.6556 7.22533 46.7534 8.32081 46.7534 10.5118V17.2055H43.3461V4.73634H46.6084V6.47622C47.6395 5.09076 49.0169 4.39803 50.7406 4.39803C52.0778 4.39803 53.133 4.78467 53.9062 5.55795C54.6795 6.33123 55.0662 7.43476 55.0662 8.86855V17.2055Z" fill="#323232"/>
<path d="M60.1123 9.89729C60.1123 6.81566 62.6105 4.3175 65.6921 4.3175C65.8554 4.3175 65.9877 4.44986 65.9877 4.61312V9.11891C65.9877 9.71207 65.5069 10.1929 64.9137 10.1929H60.4079C60.2447 10.1929 60.1123 10.0606 60.1123 9.89729Z" fill="#4640DE"/>
<path d="M67.1257 5.39138C67.1257 4.79823 67.6066 4.31738 68.1997 4.31738H71.9271C72.5203 4.31738 73.0011 4.79823 73.0011 5.39138V9.11879C73.0011 9.71194 72.5203 10.1928 71.9271 10.1928H68.1997C67.6066 10.1928 67.1257 9.71195 67.1257 9.11879V5.39138Z" fill="#F7981D"/>
<path d="M67.1257 12.404C67.1257 11.8108 67.6066 11.33 68.1997 11.33H72.663C72.8497 11.33 73.0011 11.4814 73.0011 11.6681C73.0011 14.7262 70.522 17.2054 67.4639 17.2054C67.2771 17.2054 67.1257 17.054 67.1257 16.8672V12.404Z" fill="#4640DE"/>
<path d="M60.1133 12.404C60.1133 11.8108 60.5941 11.33 61.1873 11.33H64.9147C65.5078 11.33 65.9887 11.8108 65.9887 12.404V16.1314C65.9887 16.7245 65.5078 17.2054 64.9147 17.2054H61.1873C60.5941 17.2054 60.1133 16.7245 60.1133 16.1314V12.404Z" fill="#4640DE"/>
</svg>
