<svg width="15" height="13" viewBox="0 0 15 13" fill="none" xmlns="http://www.w3.org/2000/svg">
<path fill-rule="evenodd" clip-rule="evenodd" d="M0.0717236 0.446254C0.200302 0.174348 0.480725 0 0.789484 0H14.2105C14.5193 0 14.7997 0.174348 14.9283 0.446254C15.0569 0.718161 15.01 1.03772 14.8083 1.26418L9.63158 7.07738V12.2353C9.63158 12.4993 9.49104 12.7445 9.2598 12.8842C9.02855 13.0239 8.7393 13.0381 8.49461 12.9219L5.81041 11.6474C5.53989 11.519 5.36842 11.2526 5.36842 10.9608V7.07738L0.191681 1.26418C-0.00998865 1.03772 -0.0568549 0.718161 0.0717236 0.446254ZM2.51306 1.52941L6.7557 6.29366C6.87935 6.43251 6.94737 6.60977 6.94737 6.79314V10.484L8.05263 11.0088V6.79314C8.05263 6.60977 8.12065 6.43251 8.2443 6.29366L12.4869 1.52941H2.51306Z" fill="white"/>
</svg>
