<svg width="9" height="13" viewBox="0 0 9 13" fill="none" xmlns="http://www.w3.org/2000/svg">
<path d="M7.01033 0H1.09054C1.0045 0 0.934753 0.0697469 0.934753 0.155784V1.71362C0.934753 1.79966 1.0045 1.86941 1.09054 1.86941H7.01033C7.09637 1.86941 7.16611 1.79966 7.16611 1.71362V0.155784C7.16611 0.0697469 7.09637 0 7.01033 0Z" fill="#B4B1FF"/>
<path d="M3.73875 5.29667C3.66821 5.29551 3.59961 5.31985 3.54558 5.36522C3.50919 5.39453 3.47972 5.43151 3.45925 5.47351C3.43879 5.51552 3.42784 5.56152 3.42719 5.60824V9.97019C3.42878 10.0523 3.46212 10.1307 3.52021 10.1887C3.57829 10.2468 3.65662 10.2802 3.73875 10.2818H7.94492C7.98624 10.2818 8.02586 10.2653 8.05508 10.2361C8.08429 10.2069 8.10071 10.1673 8.10071 10.126V5.45245C8.10071 5.41114 8.08429 5.37151 8.05508 5.3423C8.02586 5.31308 7.98624 5.29667 7.94492 5.29667H3.73875ZM5.96335 8.66161C5.79808 8.66161 5.63959 8.59595 5.52273 8.47909C5.40586 8.36223 5.34021 8.20374 5.34021 8.03847C5.37744 7.81313 5.46709 7.59968 5.60193 7.41533C5.71318 7.24267 5.83384 7.07625 5.96335 6.91682C6.09286 7.07625 6.21351 7.24267 6.32477 7.41533C6.46129 7.59872 6.55112 7.81259 6.58648 8.03847C6.58648 8.20374 6.52083 8.36223 6.40397 8.47909C6.28711 8.59595 6.12861 8.66161 5.96335 8.66161Z" fill="#B4B1FF"/>
<path d="M0.0810078 4.67349C0.125747 4.67349 0.162016 4.63722 0.162016 4.59248C0.162016 4.54774 0.125747 4.51147 0.0810078 4.51147C0.0362684 4.51147 0 4.54774 0 4.59248C0 4.63722 0.0362684 4.67349 0.0810078 4.67349Z" fill="#383838"/>
<path d="M0.934704 5.6082V9.97015C0.934049 10.0169 0.923099 10.0629 0.902634 10.1049C0.88217 10.1469 0.852695 10.1839 0.816308 10.2132C0.762276 10.2585 0.693681 10.2829 0.623136 10.2817H0.0747763C0.0554216 10.2803 0.0372272 10.2719 0.0235036 10.2582C0.00978003 10.2445 0.00143948 10.2263 0 10.2069V5.37141C0.00143948 5.35205 0.00978003 5.33386 0.0235036 5.32013C0.0372272 5.30641 0.0554216 5.29807 0.0747763 5.29663H0.623136C0.70527 5.29823 0.783595 5.33156 0.841683 5.38965C0.899771 5.44774 0.933109 5.52607 0.934704 5.6082Z" fill="#B4B1FF"/>
<path d="M0.0810078 11.3722C0.125747 11.3722 0.162016 11.336 0.162016 11.2912C0.162016 11.2465 0.125747 11.2102 0.0810078 11.2102C0.0362684 11.2102 0 11.2465 0 11.2912C0 11.336 0.0362684 11.3722 0.0810078 11.3722Z" fill="#383838"/>
<path d="M2.80411 5.60823V9.97019C2.80392 10.1025 2.8322 10.2333 2.88703 10.3537C2.94187 10.4742 3.02197 10.5814 3.12191 10.6681C3.29185 10.8236 3.51475 10.9083 3.74505 10.9049H7.95122C7.99253 10.9049 8.03216 10.9213 8.06137 10.9505C8.09059 10.9797 8.107 11.0194 8.107 11.0607V11.2165C8.107 11.547 7.9757 11.864 7.74198 12.0977C7.50825 12.3314 7.19126 12.4627 6.86073 12.4627H1.2525C0.921972 12.4627 0.604978 12.3314 0.371256 12.0977C0.137535 11.864 0.00623186 11.547 0.00623186 11.2165V10.9859C0.00617128 10.9655 0.0138453 10.9457 0.0277144 10.9307C0.0415834 10.9157 0.0606213 10.9065 0.0810081 10.9049H0.623136C0.853437 10.9083 1.07633 10.8236 1.24627 10.6681C1.34508 10.5808 1.42401 10.4733 1.47776 10.3529C1.5315 10.2325 1.55881 10.102 1.55784 9.97019V5.60823C1.55804 5.47591 1.52976 5.3451 1.47492 5.22468C1.42009 5.10426 1.33998 4.99704 1.24004 4.91032C1.0701 4.75485 0.847205 4.67015 0.616905 4.67353H0.0747766C0.0543898 4.67196 0.0353519 4.66273 0.0214829 4.64771C0.00761383 4.63268 -6.02221e-05 4.61297 3.5593e-07 4.59252V4.36196C3.5593e-07 4.03143 0.131304 3.71444 0.365025 3.48071C0.598746 3.24699 0.91574 3.11569 1.24627 3.11569V2.56733C1.24771 2.54798 1.25605 2.52978 1.26978 2.51606C1.2835 2.50233 1.30169 2.49399 1.32105 2.49255H6.77349C6.79394 2.49249 6.81365 2.50017 6.82867 2.51404C6.8437 2.52791 6.85292 2.54694 6.8545 2.56733V3.11569C7.18503 3.11569 7.50202 3.24699 7.73574 3.48071C7.96947 3.71444 8.10077 4.03143 8.10077 4.36196V4.59875C8.10081 4.60912 8.09869 4.61938 8.09454 4.62889C8.0904 4.63839 8.08433 4.64693 8.07671 4.65396C8.0691 4.66099 8.0601 4.66636 8.05029 4.66973C8.04049 4.6731 8.03009 4.67439 8.01976 4.67353H3.73882C3.50852 4.67015 3.28562 4.75485 3.11568 4.91032C3.01688 4.99762 2.93794 5.10509 2.8842 5.22548C2.83045 5.34588 2.80314 5.47639 2.80411 5.60823Z" fill="#4640DE"/>
</svg>
