<svg width="13" height="15" viewBox="0 0 13 15" fill="none" xmlns="http://www.w3.org/2000/svg">
<path d="M5.37039 1.4009H4.78237C4.13947 1.40217 3.51658 1.62463 3.01833 2.03092C2.99628 2.04654 2.97091 2.05685 2.94422 2.06102C2.91752 2.0652 2.89022 2.06314 2.86445 2.05501C2.83869 2.04687 2.81515 2.03288 2.7957 2.01412C2.77625 1.99537 2.7614 1.97237 2.75232 1.94692L2.1783 0.231874C2.16935 0.20537 2.16688 0.177105 2.1711 0.149449C2.17532 0.121793 2.18612 0.0955518 2.20257 0.0729263C2.21902 0.0503008 2.24066 0.03195 2.26567 0.0194124C2.29068 0.00687473 2.31833 0.000515644 2.34631 0.000868407H4.40436C4.54992 0.00194947 4.69152 0.0483789 4.80946 0.133695C4.9274 0.219012 5.0158 0.338972 5.06238 0.476881L5.37039 1.4009Z" fill="#B4B1FF"/>
<path d="M10.424 0.231843L9.857 1.94689C9.84792 1.97234 9.83308 1.99534 9.81362 2.01409C9.79417 2.03285 9.77063 2.04684 9.74487 2.05498C9.7191 2.06311 9.6918 2.06517 9.6651 2.06099C9.63841 2.05681 9.61304 2.04651 9.59099 2.03089C9.09088 1.62308 8.46526 1.40053 7.81995 1.40087H7.23193L7.53994 0.483849C7.58741 0.337653 7.68167 0.211143 7.80819 0.123847C7.9347 0.036552 8.08643 -0.00667554 8.23996 0.00083694H10.291C10.3159 0.0054415 10.3396 0.015407 10.3603 0.030044C10.381 0.044681 10.3982 0.0636401 10.4109 0.0856094C10.4235 0.107579 10.4313 0.132034 10.4335 0.157283C10.4358 0.182532 10.4325 0.207972 10.424 0.231843Z" fill="#B4B1FF"/>
<path d="M12.6013 8.90502V11.9011C12.6013 12.2724 12.4538 12.6285 12.1913 12.8911C11.9287 13.1536 11.5726 13.3011 11.2013 13.3011H10.9983C11.0886 13.0356 11.1267 12.7551 11.1103 12.4751L10.9913 10.5011L10.9493 9.80104L10.8373 7.81299L11.1593 7.91799L11.8593 8.163L12.0973 8.24C12.2416 8.28207 12.3685 8.36944 12.4592 8.4892C12.55 8.60896 12.5998 8.75475 12.6013 8.90502Z" fill="#4640DE"/>
<path d="M1.765 7.81299L1.65299 9.80104L1.61099 10.5011L1.49199 12.4751C1.47559 12.7551 1.51363 13.0356 1.60399 13.3011H1.40099C1.02968 13.3011 0.673571 13.1536 0.411013 12.8911C0.148455 12.6285 0.000951995 12.2724 0.000951995 11.9011V8.90502C-0.00701564 8.75237 0.0352013 8.6013 0.121155 8.4749C0.207109 8.3485 0.332074 8.25371 0.476964 8.205L0.70097 8.163L1.40099 7.91799L1.765 7.81299Z" fill="#4640DE"/>
<path d="M9.92035 4.07488C9.89597 3.67018 9.75496 3.28118 9.51434 2.95485C9.3188 2.68956 9.06355 2.47401 8.76926 2.32565C8.47496 2.17728 8.14988 2.10027 7.8203 2.10083H4.78222C4.45265 2.10027 4.12756 2.17728 3.83327 2.32565C3.53897 2.47401 3.28373 2.68956 3.08818 2.95485C2.84756 3.28118 2.70655 3.67018 2.68217 4.07488L2.62617 4.99191C2.62417 5.0213 2.62962 5.05072 2.64202 5.07745C2.65442 5.10417 2.67336 5.12734 2.6971 5.14479C2.72083 5.16224 2.74859 5.17342 2.7778 5.17729C2.807 5.18116 2.83671 5.17759 2.86417 5.16691C3.28779 4.9904 3.74229 4.89998 4.20121 4.9009H8.40132C8.86023 4.89998 9.31474 4.9904 9.73835 5.16691C9.76581 5.17759 9.79552 5.18116 9.82473 5.17729C9.85393 5.17342 9.88169 5.16224 9.90543 5.14479C9.92916 5.12734 9.94811 5.10417 9.96051 5.07745C9.97291 5.05072 9.97836 5.0213 9.97636 4.99191L9.92035 4.07488Z" fill="#4640DE"/>
<path d="M10.0605 6.49702C10.0537 6.3711 10.0131 6.24933 9.94288 6.1446C9.87264 6.03987 9.77542 5.95605 9.66148 5.902C9.2718 5.70177 8.83956 5.59851 8.40145 5.601H4.20134C3.76121 5.60036 3.32713 5.70348 2.93431 5.902C2.82169 5.95701 2.72589 6.04124 2.65694 6.1459C2.58798 6.25057 2.54839 6.37183 2.5423 6.49702L2.18529 12.5172C2.17382 12.708 2.20155 12.8991 2.26675 13.0788C2.33196 13.2585 2.43326 13.4229 2.56443 13.5619C2.69559 13.7009 2.85384 13.8117 3.02942 13.8872C3.205 13.9628 3.39419 14.0016 3.58533 14.0012H9.01747C9.20861 14.0016 9.3978 13.9628 9.57338 13.8872C9.74895 13.8117 9.9072 13.7009 10.0384 13.5619C10.1695 13.4229 10.2708 13.2585 10.336 13.0788C10.4013 12.8991 10.429 12.708 10.4175 12.5172L10.0605 6.49702ZM6.65141 10.1511H5.95139C5.85856 10.1511 5.76953 10.1142 5.7039 10.0486C5.63826 9.98296 5.60138 9.89393 5.60138 9.8011C5.60138 9.70828 5.63826 9.61925 5.7039 9.55361C5.76953 9.48797 5.85856 9.4511 5.95139 9.4511H6.65141C6.74424 9.4511 6.83326 9.48797 6.8989 9.55361C6.96454 9.61925 7.00142 9.70828 7.00142 9.8011C7.00142 9.89393 6.96454 9.98296 6.8989 10.0486C6.83326 10.1142 6.74424 10.1511 6.65141 10.1511Z" fill="#B4B1FF"/>
</svg>
