<svg width="39" height="39" viewBox="0 0 39 39" fill="none" xmlns="http://www.w3.org/2000/svg">
<rect width="39" height="39" rx="4" fill="white"/>
<path fill-rule="evenodd" clip-rule="evenodd" d="M15.4375 12.7C15.222 12.7 15.0153 12.7896 14.863 12.949C14.7106 13.1084 14.625 13.3246 14.625 13.55V25.4983L19.0277 22.2083C19.3102 21.9972 19.6898 21.9972 19.9723 22.2083L24.375 25.4983V13.55C24.375 13.3246 24.2894 13.1084 24.137 12.949C23.9847 12.7896 23.778 12.7 23.5625 12.7H15.4375ZM13.7139 11.7469C14.171 11.2687 14.791 11 15.4375 11H23.5625C24.209 11 24.829 11.2687 25.2861 11.7469C25.7432 12.2251 26 12.8737 26 13.55V27.15C26 27.4684 25.8299 27.7601 25.5593 27.9058C25.2887 28.0515 24.9629 28.0267 24.7152 27.8417L19.5 23.9446L14.2848 27.8417C14.0371 28.0267 13.7113 28.0515 13.4407 27.9058C13.1701 27.7601 13 27.4684 13 27.15V13.55C13 12.8737 13.2568 12.2251 13.7139 11.7469Z" fill="#969696"/>
</svg>
