<svg width="16" height="13" viewBox="0 0 16 13" fill="none" xmlns="http://www.w3.org/2000/svg">
<path d="M2.05807 5.83239C2.08199 6.22605 2.15075 6.61568 2.26301 6.99374C2.44401 7.5421 2.46888 8.13 2.33483 8.69167C2.20077 9.25335 1.91309 9.76666 1.50396 10.1742L0.251527 11.3811C-0.0520931 11.6847 -0.052093 11.9276 0.0997173 12.0718L0.638643 12.6107C0.673925 12.6463 0.715901 12.6745 0.76215 12.6938C0.808399 12.7131 0.858005 12.723 0.908107 12.723C0.958209 12.723 1.00781 12.7131 1.05406 12.6938C1.10031 12.6745 1.14229 12.6463 1.17757 12.6107L2.61218 11.1761C3.00165 10.7858 3.49004 10.509 4.02494 10.3752C4.55985 10.2415 5.12107 10.256 5.64838 10.4171C6.03206 10.5461 6.42943 10.6302 6.8325 10.6676C6.87205 10.672 6.91202 10.664 6.94673 10.6445C6.98145 10.625 7.00916 10.5951 7.02595 10.559C7.04274 10.5229 7.04775 10.4825 7.04028 10.4434C7.0328 10.4043 7.01323 10.3685 6.98431 10.3412L2.38446 5.68818C2.3575 5.66001 2.32251 5.64083 2.28426 5.63326C2.24601 5.62568 2.20636 5.63007 2.17069 5.64583C2.13503 5.66159 2.10508 5.68795 2.08493 5.72133C2.06478 5.75471 2.0554 5.79349 2.05807 5.83239ZM3.36364 9.33921C3.32825 9.30382 3.30018 9.26182 3.28103 9.21558C3.26188 9.16935 3.25202 9.11979 3.25202 9.06975C3.25202 9.0197 3.26188 8.97015 3.28103 8.92392C3.30018 8.87768 3.32825 8.83567 3.36364 8.80028C3.4351 8.72882 3.53203 8.68867 3.6331 8.68867C3.68314 8.68867 3.7327 8.69853 3.77893 8.71768C3.82517 8.73683 3.86718 8.7649 3.90256 8.80028C3.93795 8.83567 3.96602 8.87768 3.98517 8.92392C4.00432 8.97015 4.01418 9.0197 4.01418 9.06975C4.01418 9.11979 4.00432 9.16935 3.98517 9.21558C3.96602 9.26182 3.93795 9.30382 3.90256 9.33921C3.86718 9.3746 3.82517 9.40267 3.77893 9.42182C3.7327 9.44097 3.68314 9.45083 3.6331 9.45083C3.58306 9.45083 3.5335 9.44097 3.48727 9.42182C3.44103 9.40267 3.39902 9.3746 3.36364 9.33921Z" fill="#4640DE"/>
<path d="M11.3716 6.15125C11.377 6.71399 11.5907 7.2548 11.9713 7.66935C11.9925 7.70073 12.0038 7.73774 12.0038 7.77562C12.0038 7.81349 11.9925 7.8505 11.9713 7.88188C11.7309 8.32854 11.4266 8.73769 11.068 9.09637C10.4364 9.73327 9.65255 10.1983 8.79084 10.4475C8.65902 10.4877 8.51871 10.4914 8.38498 10.4579C8.25126 10.4245 8.12916 10.3553 8.03179 10.2577L2.4224 4.64074C2.32483 4.54337 2.25562 4.42127 2.22219 4.28754C2.18876 4.15382 2.19237 4.01351 2.23264 3.88168C2.54836 2.75329 3.22822 1.76091 4.16642 1.05896C5.10462 0.357018 6.24854 -0.0151166 7.42017 0.000470439C8.59179 0.0160575 9.72541 0.418492 10.6446 1.14515C11.5638 1.8718 12.217 2.88192 12.5026 4.01831C12.5119 4.05692 12.5088 4.09745 12.4938 4.13422C12.4788 4.17098 12.4527 4.20212 12.4191 4.22326C12.0963 4.43039 11.831 4.71572 11.6478 5.05277C11.4647 5.38982 11.3697 5.76767 11.3716 6.15125Z" fill="#B4B1FF"/>
<path d="M13.6486 7.66938C13.4 7.66976 13.155 7.60904 12.9353 7.49257C12.7156 7.3761 12.5279 7.20744 12.3886 7.00142C12.2197 6.75012 12.1299 6.45406 12.1305 6.15128C12.1305 5.85103 12.2196 5.55752 12.3864 5.30787C12.5532 5.05822 12.7903 4.86364 13.0677 4.74874C13.3451 4.63384 13.6503 4.60377 13.9448 4.66235C14.2393 4.72093 14.5098 4.86551 14.7221 5.07782C14.9344 5.29013 15.079 5.56063 15.1376 5.85512C15.1961 6.1496 15.1661 6.45484 15.0512 6.73224C14.9363 7.00963 14.7417 7.24673 14.492 7.41354C14.2424 7.58035 13.9489 7.66938 13.6486 7.66938Z" fill="#4640DE"/>
</svg>
