<svg width="12" height="11" viewBox="0 0 12 11" fill="none" xmlns="http://www.w3.org/2000/svg">
<path d="M11.4 1.80603H0.6C0.44087 1.80603 0.288258 1.86924 0.175736 1.98177C0.0632141 2.09429 0 2.2469 0 2.40603V9.60603C0 9.76516 0.0632141 9.91777 0.175736 10.0303C0.288258 10.1428 0.44087 10.206 0.6 10.206H11.4C11.5591 10.206 11.7117 10.1428 11.8243 10.0303C11.9368 9.91777 12 9.76516 12 9.60603V2.40603C12 2.2469 11.9368 2.09429 11.8243 1.98177C11.7117 1.86924 11.5591 1.80603 11.4 1.80603ZM1.8 4.20603C1.68133 4.20603 1.56533 4.17084 1.46666 4.10491C1.36799 4.03898 1.29108 3.94528 1.24567 3.83564C1.20026 3.726 1.18838 3.60536 1.21153 3.48898C1.23468 3.37259 1.29182 3.26568 1.37574 3.18177C1.45965 3.09785 1.56656 3.04071 1.68295 3.01756C1.79933 2.99441 1.91997 3.00629 2.02961 3.0517C2.13925 3.09712 2.23295 3.17402 2.29888 3.27269C2.36481 3.37136 2.4 3.48736 2.4 3.60603C2.4 3.76516 2.33679 3.91777 2.22426 4.03029C2.11174 4.14282 1.95913 4.20603 1.8 4.20603ZM8.022 9.51603C7.25986 9.69494 6.46016 9.62054 5.7441 9.30409C5.02805 8.98765 4.43466 8.44641 4.05386 7.76241C3.67306 7.0784 3.52561 6.2889 3.63385 5.51356C3.74209 4.73822 4.10012 4.01929 4.65369 3.46572C5.20726 2.91215 5.92619 2.55412 6.70153 2.44588C7.47687 2.33764 8.26637 2.48509 8.95038 2.86589C9.63439 3.24669 10.1756 3.84008 10.4921 4.55613C10.8085 5.27219 10.8829 6.07189 10.704 6.83403C10.5509 7.48639 10.2187 8.08306 9.74486 8.55689C9.27103 9.03071 8.67436 9.36289 8.022 9.51603Z" fill="#B4B1FF"/>
<path d="M9.51591 1.206H4.88391C4.85653 1.20632 4.82959 1.19913 4.80601 1.18523C4.78242 1.17133 4.76309 1.15123 4.75011 1.12713C4.73713 1.10302 4.73099 1.07582 4.73237 1.04847C4.73374 1.02113 4.74258 0.994682 4.75791 0.972L5.21991 0.27C5.27426 0.187464 5.34816 0.11963 5.43504 0.0725276C5.52192 0.025425 5.61909 0.000511271 5.71791 0H8.67591C8.77473 0.000511271 8.8719 0.025425 8.95878 0.0725276C9.04566 0.11963 9.11956 0.187464 9.17391 0.27L9.63591 0.972C9.65097 0.994261 9.65978 1.02016 9.6614 1.04699C9.66303 1.07382 9.65742 1.10059 9.64515 1.12451C9.63289 1.14842 9.61442 1.16861 9.59168 1.18294C9.56895 1.19728 9.54278 1.20524 9.51591 1.206Z" fill="#4640DE"/>
<path d="M8.01625 3.11404C7.50195 2.96729 6.95777 2.9607 6.44007 3.09495C5.92237 3.2292 5.44997 3.4994 5.07179 3.87758C4.69362 4.25576 4.42341 4.72816 4.28916 5.24586C4.15492 5.76356 4.16151 6.30774 4.30825 6.82204C4.44311 7.3191 4.70568 7.77223 5.06987 8.13642C5.43405 8.5006 5.88718 8.76317 6.38425 8.89804C6.89855 9.04478 7.44272 9.05137 7.96043 8.91712C8.47813 8.78287 8.95053 8.51267 9.3287 8.13449C9.70688 7.75631 9.97709 7.28391 10.1113 6.76621C10.2456 6.24851 10.239 5.70433 10.0922 5.19004C9.95738 4.69297 9.69482 4.23984 9.33063 3.87565C8.96645 3.51147 8.51332 3.2489 8.01625 3.11404ZM8.26225 7.06804C8.01647 7.31525 7.69254 7.46954 7.34571 7.5046C6.99887 7.53966 6.65062 7.45331 6.36034 7.26029C6.07006 7.06726 5.85574 6.7795 5.75392 6.4461C5.6521 6.1127 5.6691 5.75431 5.80201 5.43204C5.93492 5.10977 6.17552 4.84359 6.48276 4.6789C6.79001 4.51421 7.14487 4.46121 7.48683 4.52893C7.82879 4.59666 8.13666 4.78092 8.35794 5.05028C8.57922 5.31965 8.7002 5.65744 8.70025 6.00604C8.7006 6.20315 8.6621 6.3984 8.58694 6.58063C8.51179 6.76285 8.40146 6.92848 8.26225 7.06804Z" fill="#4640DE"/>
</svg>
