<svg width="12" height="12" viewBox="0 0 12 12" fill="none" xmlns="http://www.w3.org/2000/svg">
<g clip-path="url(#clip0)">
<path d="M0.413789 2.48279H11.5862C11.8148 2.48279 12 2.66797 12 2.89658V10.7586C12 10.9873 11.8148 11.1724 11.5862 11.1724H0.413789C0.18518 11.1725 0 10.9873 0 10.7586V2.89658C0 2.66797 0.18518 2.48279 0.413789 2.48279Z" fill="#B4B1FF"/>
<path d="M7.0346 0H4.96563C4.27997 0 3.72424 0.555726 3.72424 1.24139V2.48278H4.55182V1.24139C4.55182 1.01278 4.737 0.827601 4.96561 0.827601H7.03458C7.26319 0.827601 7.44837 1.01278 7.44837 1.24139V2.48278H8.27594V1.24139C8.27597 0.555726 7.72027 0 7.0346 0Z" fill="#4640DE"/>
<path d="M5.99991 3.3103C7.94245 3.3103 9.51715 4.885 9.51715 6.82755C9.51715 8.77009 7.94245 10.3448 5.99991 10.3448C4.05736 10.3448 2.48267 8.77009 2.48267 6.82755C2.48267 4.885 4.05736 3.3103 5.99991 3.3103Z" fill="#4640DE"/>
<path d="M4.96552 4.55176H7.03449V5.79313H8.27585V7.8621H7.03449V9.10349H4.96552V7.8621H3.72415V5.79313H4.96552V4.55176Z" fill="#B4B1FF"/>
<path d="M2.06884 11.1725H0.827454V12.0001H2.06884V11.1725Z" fill="#4640DE"/>
<path d="M11.1721 11.1725H9.93069V12.0001H11.1721V11.1725Z" fill="#4640DE"/>
</g>
<defs>
<clipPath id="clip0">
<rect width="12" height="12" fill="white"/>
</clipPath>
</defs>
</svg>
