<svg width="13" height="13" viewBox="0 0 13 13" fill="none" xmlns="http://www.w3.org/2000/svg">
<path d="M13 1.54893V7.23643C13 7.27952 12.9829 7.32086 12.9524 7.35133C12.9219 7.38181 12.8806 7.39893 12.8375 7.39893H0.1625C0.119402 7.39893 0.0780698 7.38181 0.0475952 7.35133C0.0171205 7.32086 0 7.27952 0 7.23643V1.54893C0 1.37654 0.0684819 1.2112 0.190381 1.08931C0.312279 0.967408 0.477609 0.898926 0.65 0.898926H12.35C12.5224 0.898926 12.6877 0.967408 12.8096 1.08931C12.9315 1.2112 13 1.37654 13 1.54893Z" fill="#B4B1FF"/>
<path d="M0 8.21145V9.34895C0 9.52134 0.0684819 9.68667 0.190381 9.80857C0.312279 9.93047 0.477609 9.99895 0.65 9.99895H4.68C4.70371 9.99864 4.72721 10.0035 4.74883 10.0133C4.77046 10.023 4.78969 10.0374 4.80517 10.0553C4.82066 10.0733 4.83203 10.0944 4.83847 10.1173C4.84492 10.1401 4.8463 10.164 4.8425 10.1875L4.6215 11.4875C4.58993 11.6015 4.52784 11.7047 4.44194 11.786C4.35603 11.8673 4.24956 11.9237 4.134 11.949C4.06249 11.9669 3.99943 12.0091 3.95557 12.0684C3.91171 12.1277 3.88977 12.2003 3.8935 12.274C3.90013 12.3601 3.93953 12.4405 4.00361 12.4986C4.06769 12.5566 4.15157 12.5879 4.238 12.586H8.7425C8.82893 12.5879 8.91281 12.5566 8.97689 12.4986C9.04097 12.4405 9.08037 12.3601 9.087 12.274C9.09073 12.2003 9.06879 12.1277 9.02493 12.0684C8.98107 12.0091 8.91801 11.9669 8.8465 11.949C8.73094 11.9237 8.62447 11.8673 8.53856 11.786C8.45266 11.7047 8.39057 11.6015 8.359 11.4875L8.138 10.1875C8.13369 10.1623 8.13535 10.1365 8.14287 10.1121C8.15038 10.0877 8.16354 10.0655 8.18126 10.0471C8.19898 10.0287 8.22077 10.0148 8.24488 10.0065C8.26898 9.99809 8.29472 9.99552 8.32 9.99895H12.35C12.5224 9.99895 12.6877 9.93047 12.8096 9.80857C12.9315 9.68667 13 9.52134 13 9.34895V8.21145C13 8.16835 12.9829 8.12702 12.9524 8.09655C12.9219 8.06607 12.8806 8.04895 12.8375 8.04895H0.1625C0.119402 8.04895 0.0780698 8.06607 0.0475952 8.09655C0.0171205 8.12702 0 8.16835 0 8.21145Z" fill="#4640DE"/>
</svg>
