<svg width="12" height="12" viewBox="0 0 12 12" fill="none" xmlns="http://www.w3.org/2000/svg">
<path fill-rule="evenodd" clip-rule="evenodd" d="M5.4 1.2C3.0804 1.2 1.2 3.0804 1.2 5.4C1.2 7.7196 3.0804 9.6 5.4 9.6C6.53157 9.6 7.55862 9.15251 8.31383 8.42483C8.32963 8.40429 8.34693 8.38455 8.36574 8.36574C8.38455 8.34693 8.40429 8.32963 8.42483 8.31383C9.15251 7.55862 9.6 6.53157 9.6 5.4C9.6 3.0804 7.7196 1.2 5.4 1.2ZM9.61914 8.77061C10.3581 7.84681 10.8 6.67501 10.8 5.4C10.8 2.41766 8.38234 0 5.4 0C2.41766 0 0 2.41766 0 5.4C0 8.38234 2.41766 10.8 5.4 10.8C6.67501 10.8 7.84681 10.3581 8.77061 9.61914L10.9757 11.8243C11.2101 12.0586 11.5899 12.0586 11.8243 11.8243C12.0586 11.5899 12.0586 11.2101 11.8243 10.9757L9.61914 8.77061Z" fill="#AAAAAA"/>
</svg>
